<svg xmlns="http://www.w3.org/2000/svg" viewBox="0 0 32 32">
  <!-- mostrador redondo -->
  <circle cx="16" cy="11.2" r="8.4" fill="#335948"/>
  <circle cx="16" cy="11.2" r="6.5" fill="none" stroke="#F2EFE6" stroke-width="1.1"/>
  <path d="M16 6.3 V7.5 M20.9 11.2 H19.7 M11.1 11.2 H12.3 M18.5 7.7 L17.9 8.7 M13.5 7.7 L14.1 8.7 M18.5 14.7 L17.9 13.7 M13.5 14.7 L14.1 13.7" stroke="#F2EFE6" stroke-width="1" stroke-linecap="round"/>
  <path d="M16 11.2 L19.3 8.6" stroke="#BFA46F" stroke-width="1.5" stroke-linecap="round"/>
  <circle cx="16" cy="11.2" r="1.1" fill="#BFA46F"/>
  <!-- coluna -->
  <rect x="14.4" y="19.2" width="3.2" height="3.4" fill="#BFA46F"/>
  <!-- prato / base -->
  <path d="M6 22.6 H26 C26.7 22.6 27.1 23 26.9 23.6 L26 26.4 C25.8 26.9 25.3 27.2 24.7 27.2 H7.3 C6.7 27.2 6.2 26.9 6 26.4 L5.1 23.6 C4.9 23 5.3 22.6 6 22.6 Z" fill="#73734A"/>
  <rect x="5" y="21.6" width="22" height="2" rx="1" fill="#335948"/>
</svg>
