<svg xmlns="http://www.w3.org/2000/svg" viewBox="0 0 32 32"><path d="M5 13.5 L27 13.5" stroke="#335948" stroke-width="2" stroke-linecap="round"/><path d="M9 13.5 L7 21 M9 13.5 L11 21 M23 13.5 L21 21 M23 13.5 L25 21" stroke="#73734A" stroke-width="1.5" stroke-linecap="round"/><circle cx="7.3" cy="22" r="1.5" fill="#335948"/><circle cx="10.7" cy="22" r="1.5" fill="#335948"/><circle cx="21.3" cy="22" r="1.5" fill="#335948"/><circle cx="24.7" cy="22" r="1.5" fill="#335948"/><path d="M13 16 C12.4 17.2 12.4 18 13 19 M16 16 C15.4 17.2 15.4 18 16 19 M19 16 C18.4 17.2 18.4 18 19 19" stroke="#7FA38E" stroke-width="1.2" fill="none" stroke-linecap="round"/><path d="M4 27 C12 25.6 20 25.6 28 27" stroke="#73734A" stroke-width="1.4" fill="none" stroke-linecap="round"/></svg>